<svg width="64" height="64" viewBox="0 0 64 64" fill="none" xmlns="http://www.w3.org/2000/svg">
  <defs>
    <linearGradient id="hp_splash_fill" x1="8" y1="6" x2="56" y2="58" gradientUnits="userSpaceOnUse">
      <stop stop-color="#BDF4FF"/>
      <stop offset="0.46" stop-color="#57C8FF"/>
      <stop offset="1" stop-color="#2B63F6"/>
    </linearGradient>
    <linearGradient id="hp_h_fill" x1="14" y1="18" x2="29" y2="48" gradientUnits="userSpaceOnUse">
      <stop stop-color="#A6EBFF"/>
      <stop offset="0.48" stop-color="#53C7FF"/>
      <stop offset="1" stop-color="#2D76FF"/>
    </linearGradient>
    <linearGradient id="hp_p_fill" x1="29" y1="16" x2="47" y2="48" gradientUnits="userSpaceOnUse">
      <stop stop-color="#D8FFAA"/>
      <stop offset="0.45" stop-color="#7CE66B"/>
      <stop offset="1" stop-color="#19B56C"/>
    </linearGradient>
    <filter id="hp_shadow" x="0" y="0" width="64" height="64" filterUnits="userSpaceOnUse" color-interpolation-filters="sRGB">
      <feFlood flood-opacity="0" result="BackgroundImageFix"/>
      <feColorMatrix in="SourceAlpha" type="matrix" values="0 0 0 0 0 0 0 0 0 0 0 0 0 0 0 0 0 0 127 0" result="hardAlpha"/>
      <feOffset dy="2"/>
      <feGaussianBlur stdDeviation="1.5"/>
      <feComposite in2="hardAlpha" operator="out"/>
      <feColorMatrix type="matrix" values="0 0 0 0 0.027451 0 0 0 0 0.0745098 0 0 0 0 0.176471 0 0 0 0.38 0"/>
      <feBlend mode="normal" in2="BackgroundImageFix" result="effect1_dropShadow_0_1"/>
      <feBlend mode="normal" in="SourceGraphic" in2="effect1_dropShadow_0_1" result="shape"/>
    </filter>
  </defs>
  <g filter="url(#hp_shadow)">
    <path d="M20.4 13.2C25.2 8.6 34.1 7.8 40 12C46.9 10.4 53.5 15.7 52.4 22.7C57.9 28.1 56.7 37.8 49.2 41.7C46.8 49.9 37.2 54.2 29.8 50.7C22.1 54.2 12.4 49 11.3 40.7C5.95 36.1 5.6 27.2 11.8 22C12.4 17.7 15.8 14.4 20.4 13.2Z" fill="url(#hp_splash_fill)" stroke="#09172C" stroke-width="4" stroke-linejoin="round"/>
    <circle cx="15.2" cy="19" r="4.4" fill="#83DBFF" stroke="#09172C" stroke-width="3"/>
    <circle cx="49.2" cy="18" r="3.5" fill="#79A9FF" stroke="#09172C" stroke-width="3"/>
    <circle cx="51.2" cy="38.4" r="4" fill="#3E87FF" stroke="#09172C" stroke-width="3"/>
    <path d="M18 16.2C23 11.8 31.7 10.7 39.2 13.1" stroke="#EFFCFF" stroke-width="3.2" stroke-linecap="round" opacity="0.74"/>
    <g font-family="Arial Rounded MT Bold, Segoe UI Rounded, Trebuchet MS, Segoe UI, sans-serif" font-weight="900" paint-order="stroke fill markers" stroke="#09172C" stroke-width="5.5" stroke-linejoin="round" stroke-linecap="round">
      <text x="14" y="43" fill="url(#hp_h_fill)" font-size="27" letter-spacing="-1.2">H</text>
      <text x="29" y="43" fill="url(#hp_p_fill)" font-size="27" letter-spacing="-1.1">P</text>
    </g>
  </g>
</svg>
